# Blender v2.93.4 OBJ File: ''
# www.blender.org
mtllib shrekpieder.mtl
o Ecelon.010_Ecelon.070
v -0.179668 0.023310 -0.014135
v -0.154893 0.033842 -0.083888
v -0.181379 0.004660 -0.015257
v -0.144266 0.079766 -0.080010
v -0.151897 0.079698 -0.018826
v -0.176374 0.022009 0.085644
v -0.183449 0.004703 0.086870
v -0.087953 0.004660 -0.016512
v -0.080202 0.004718 0.108311
v -0.073022 0.004613 0.049329
v -0.123935 0.004762 0.141641
v -0.125077 0.034410 0.136180
v -0.082343 0.032890 0.100525
v -0.094670 0.079735 -0.013093
v -0.073455 0.029037 0.044966
v -0.084399 0.052896 0.005188
v -0.129361 0.033110 0.093083
v -0.123966 0.079329 0.006344
v -0.124267 0.110449 0.020445
v -0.149423 0.093189 -0.041258
v -0.170416 0.111538 -0.050771
v -0.122914 0.091531 -0.001135
v -0.073570 0.116330 -0.050773
v -0.091766 0.092274 -0.035353
v -0.097283 0.094169 -0.060730
v -0.119012 0.095229 -0.070402
v -0.117413 0.117724 -0.097222
v -0.147702 0.094386 -0.057056
v -0.117116 0.079593 -0.086604
v -0.092426 0.079522 -0.074001
v -0.085374 0.032275 -0.071826
v -0.113627 0.041380 -0.114202
v -0.113405 0.004660 -0.112760
v -0.151062 0.004658 -0.085755
v -0.086240 0.004658 -0.077335
v -0.083791 0.029329 -0.016095
vt 1.849737 -0.953899
vt 1.777496 -0.833952
vt 1.797085 -0.934466
vt 1.848700 -0.993524
vt 1.943015 -0.993522
vt 1.834009 -0.834089
vt 1.941908 -0.956748
vt 1.908408 -0.993531
vt 1.847542 -0.993524
vt 1.962845 -0.993526
vt 1.993622 -0.993515
vt 1.988610 -0.930509
vt 1.942348 -0.956498
vt 1.850267 -0.953650
vt 1.832689 -0.833987
vt 1.850731 -0.834629
vt 1.948799 -0.895643
vt 1.902988 -0.956162
vt 1.861984 -0.779117
vt 1.797867 -0.775131
vt 1.843837 -0.752590
vt 1.806781 -0.751472
vt 1.812308 -0.752452
vt 1.797875 -0.775479
vt 1.788721 -0.752562
vt 1.779708 -0.751890
vt 1.754964 -0.772553
vt 1.784189 -0.751506
vt 1.776472 -0.834846
vt 1.764785 -0.834389
vt 1.757310 -0.915511
vt 1.796449 -0.934852
vt 1.758644 -0.993533
vt 1.790649 -0.992794
vt 1.791363 -0.993532
vt 1.849398 -0.953622
vn -0.9591 0.2556 -0.1216
vn -0.6808 0.0412 -0.7312
vn -0.7921 0.1242 -0.5976
vn -0.7574 -0.6370 -0.1432
vn -0.8043 -0.4822 0.3472
vn -0.9265 0.2545 0.2772
vn -0.7111 0.5916 0.3800
vn 0.7417 -0.6706 -0.0097
vn 0.6116 -0.7890 -0.0583
vn 0.7005 -0.5506 0.4540
vn -0.0287 -0.5106 0.8593
vn -0.0713 0.6727 0.7364
vn 0.6629 0.6115 0.4321
vn 0.9545 0.2958 -0.0374
vn 0.9135 0.2424 0.3265
vn -0.1143 0.5061 0.8549
vn -0.1548 0.9607 0.2304
vn 0.9682 0.2499 0.0072
vn -0.0227 0.6150 0.7881
vn -0.7672 0.6389 -0.0555
vn 0.0626 0.7524 -0.6557
vn 0.7000 0.6683 -0.2515
vn -0.8233 0.4639 -0.3270
vn 0.6735 0.7356 0.0728
vn -0.6152 0.5949 0.5173
vn 0.0232 0.7653 0.6432
vn 0.0548 0.7519 -0.6570
vn 0.5571 0.6522 0.5140
vn 0.8722 0.0352 -0.4878
vn 0.0442 0.1234 -0.9914
vn 0.1263 0.2283 -0.9654
vn 0.9570 0.0744 -0.2803
vn 0.1390 -0.5864 -0.7980
vn -0.5654 -0.6733 -0.4764
vn 0.7250 -0.6276 -0.2835
vn 0.9963 -0.0244 -0.0821
usemtl Shrek.001
s 1
f 1/1/1 4/2/2 2/3/3
f 1/1/1 2/3/3 3/4/4
f 7/5/5 1/1/1 3/4/4
f 5/6/6 4/2/2 1/1/1
f 1/1/1 6/7/7 5/6/6
f 6/7/7 1/1/1 7/5/5
f 10/8/8 7/5/5 8/9/9
f 3/4/4 8/9/9 7/5/5
f 9/10/10 7/5/5 10/8/8
f 9/10/10 11/11/11 7/5/5
f 11/11/11 6/7/7 7/5/5
f 12/12/12 6/7/7 11/11/11
f 11/11/11 13/13/13 12/12/12
f 13/13/13 11/11/11 9/10/10
f 16/14/14 14/15/15 13/13/13
f 18/16/16 13/13/13 14/15/15
f 17/17/17 12/12/12 13/13/13
f 15/18/18 13/13/13 9/10/10
f 15/18/18 16/14/14 13/13/13
f 17/17/17 13/13/13 18/16/16
f 18/16/16 5/6/6 6/7/7
f 5/6/6 18/16/16 19/19/19
f 14/15/15 19/19/19 18/16/16
f 6/7/7 17/17/17 18/16/16
f 21/20/20 5/6/6 19/19/19
f 22/21/21 20/22/22 19/19/19
f 21/20/20 19/19/19 20/22/22
f 22/21/21 19/19/19 24/23/23
f 14/15/15 23/24/24 19/19/19
f 23/24/24 24/23/23 19/19/19
f 25/25/25 24/23/23 23/24/24
f 26/26/26 25/25/25 27/27/27
f 23/24/24 27/27/27 25/25/25
f 21/20/20 28/28/28 27/27/27
f 21/20/20 27/27/27 4/2/2
f 26/26/26 27/27/27 28/28/28
f 23/24/24 30/29/29 27/27/27
f 29/30/30 27/27/27 30/29/29
f 29/30/30 4/2/2 27/27/27
f 32/31/31 29/30/30 30/29/29
f 23/24/24 14/15/15 30/29/29
f 30/29/29 14/15/15 31/32/32
f 30/29/29 31/32/32 32/31/31
f 2/3/3 29/30/30 32/31/31
f 33/33/33 2/3/3 32/31/31
f 31/32/32 33/33/33 32/31/31
f 2/3/3 33/33/33 34/34/34
f 33/33/33 35/35/35 34/34/34
f 33/33/33 31/32/32 35/35/35
f 31/32/32 36/36/36 35/35/35
f 35/35/35 36/36/36 8/9/9
f 35/35/35 8/9/9 34/34/34
f 36/36/36 10/8/8 8/9/9
f 36/36/36 31/32/32 16/14/14
f 36/36/36 16/14/14 15/18/18
f 36/36/36 15/18/18 10/8/8
f 34/34/34 8/9/9 3/4/4
f 3/4/4 2/3/3 34/34/34
f 16/14/14 31/32/32 14/15/15
f 29/30/30 2/3/3 4/2/2
f 28/28/28 21/20/20 20/22/22
f 5/6/6 21/20/20 4/2/2
f 6/7/7 12/12/12 17/17/17
f 15/18/18 9/10/10 10/8/8
o Ecelon.051_Ecelon.111
v -0.128568 0.079931 0.004435
v -0.165614 0.047477 0.046006
v -0.124904 0.080497 0.008743
v -0.158358 0.048067 0.051347
vt 1.969833 -0.768493
vt 1.949440 -0.792520
vt 1.953990 -0.794785
vt 1.972335 -0.771618
vn -0.4492 0.8454 0.2889
vn -0.3422 0.8639 0.3695
vn -0.3488 0.8632 0.3648
vn -0.4598 0.8426 0.2803
usemtl Shrek.001
s 1
f 37/37/37 38/38/38 40/39/39
f 40/39/39 39/40/40 37/37/37
o Ecelon.052_Ecelon.112
v -0.100652 0.063473 0.046334
v -0.121672 0.080044 0.005486
v -0.108083 0.062432 0.049856
v -0.126435 0.080595 0.008510
vt 1.985868 -0.782411
vt 1.975917 -0.769718
vt 1.981934 -0.786322
vt 1.973091 -0.770675
vn 0.0391 0.9328 0.3583
vn 0.2567 0.9227 0.2876
vn 0.0577 0.9338 0.3530
vn 0.2826 0.9181 0.2778
usemtl Shrek.001
s 1
f 41/41/41 42/42/42 43/43/43
f 44/44/44 43/43/43 42/42/42
o Ecelon.016_Ecelon.121
v -0.000584 0.411814 -0.001901
v -0.066346 0.376205 0.041282
v -0.113617 0.383197 0.062820
v -0.118014 0.327437 0.060439
v -0.170855 0.401510 0.047584
v -0.166005 0.434550 -0.043433
v -0.178187 0.353128 -0.020273
v -0.158740 0.337986 0.043501
v -0.155724 0.271057 0.032507
v -0.171523 0.277091 -0.008202
v -0.166554 0.248642 -0.010840
v -0.164207 0.279768 -0.037170
v -0.159835 0.252753 -0.034445
v -0.118919 0.273388 -0.048956
v -0.118696 0.213664 -0.078332
v -0.171260 0.210312 -0.060593
v -0.120370 0.249111 -0.044698
v -0.065961 0.264277 -0.024705
v -0.080438 0.241270 -0.025191
v -0.071979 0.205104 -0.050969
v -0.070747 0.199450 -0.022102
v -0.097283 0.094169 -0.060730
v -0.091766 0.092274 -0.035353
v -0.119012 0.095229 -0.070402
v -0.147702 0.094386 -0.057056
v -0.175902 0.204557 -0.031378
v -0.149423 0.093189 -0.041258
v -0.156388 0.190102 0.007511
v -0.122914 0.091531 -0.001135
v -0.122013 0.180957 0.023223
v -0.090638 0.188036 0.010978
v -0.091782 0.234047 0.029108
v -0.120702 0.230103 0.046403
v -0.119645 0.266913 0.053859
v -0.085754 0.263087 0.033808
v -0.152743 0.238538 0.026940
v -0.032877 0.377025 -0.028980
v -0.110723 0.413402 -0.072196
vt 1.897571 -0.501849
vt 1.903078 -0.547365
vt 1.838232 -0.508097
vt 1.969424 -0.487280
vt 1.978623 -0.529033
vt 1.963345 -0.461688
vt 1.954203 -0.539382
vt 1.950407 -0.594067
vt 1.970242 -0.592162
vt 1.964000 -0.615807
vt 1.955568 -0.614878
vt 1.961061 -0.591325
vt 1.904213 -0.597321
vt 1.906029 -0.618885
vt 1.903925 -0.652769
vt 1.969903 -0.653117
vt 1.837733 -0.603696
vt 1.855902 -0.622999
vt 1.845277 -0.656336
vt 1.843730 -0.658161
vt 1.877023 -0.747679
vt 1.870098 -0.747636
vt 1.904300 -0.747417
vt 1.932051 -0.747268
vt 1.975729 -0.655134
vt 1.942472 -0.747254
vt 1.951228 -0.662189
vt 1.909195 -0.747690
vt 1.868693 -0.663758
vt 1.908075 -0.668236
vt 1.870136 -0.624090
vt 1.906436 -0.625539
vt 1.946659 -0.620605
vt 1.905115 -0.595083
vt 1.862574 -0.599769
vt 1.796224 -0.509411
vt 1.756879 -0.479835
vt 1.893951 -0.480402
vn 0.0435 -0.0460 0.9980
vn 0.0074 -0.1150 0.9933
vn 0.7119 -0.2705 0.6481
vn -0.8659 -0.0451 0.4982
vn -0.9854 -0.0286 -0.1675
vn -0.8138 0.0367 -0.5799
vn -0.7341 -0.1490 0.6625
vn -0.7653 -0.1443 0.6273
vn -0.9888 -0.1390 0.0535
vn -0.9951 -0.0234 0.0956
vn -0.7321 0.1941 -0.6529
vn -0.7092 -0.1512 -0.6886
vn 0.0673 -0.1662 -0.9838
vn 0.1419 0.2910 -0.9461
vn 0.1109 0.3133 -0.9431
vn -0.7469 0.1686 -0.6432
vn 0.8491 -0.3702 -0.3767
vn 0.9249 0.0411 -0.3781
vn 0.8437 0.1743 -0.5076
vn 0.9827 -0.0410 0.1804
vn 0.7550 -0.1215 -0.6443
vn 0.9460 -0.2527 0.2028
vn -0.0072 -0.0668 -0.9977
vn -0.7744 -0.1621 -0.6115
vn -0.9940 -0.0370 0.1027
vn -0.9424 -0.2738 0.1923
vn -0.7517 -0.2197 0.6218
vn -0.0668 -0.4266 0.9020
vn 0.6962 -0.2665 0.6665
vn -0.0425 -0.3293 0.9433
vn 0.7722 -0.2086 0.6001
vn -0.0299 -0.3119 0.9496
vn -0.7639 -0.1948 0.6152
vn -0.0199 -0.1583 0.9872
vn 0.7568 -0.2394 0.6082
vn 0.8477 -0.4949 -0.1909
vn 0.5903 -0.7599 0.2723
vn -0.1104 -0.1151 -0.9872
usemtl Shrek.001
s 1
f 47/45/45 48/46/46 46/47/47
f 47/45/45 49/48/48 48/46/46
f 51/49/49 49/48/48 50/50/50
f 52/51/51 49/48/48 51/49/49
f 52/51/51 48/46/46 49/48/48
f 53/52/52 48/46/46 52/51/51
f 53/52/52 52/51/51 54/53/53
f 54/53/53 52/51/51 51/49/49
f 53/52/52 54/53/53 55/54/54
f 54/53/53 57/55/55 55/54/54
f 54/53/53 51/49/49 56/56/56
f 57/55/55 54/53/53 56/56/56
f 57/55/55 58/57/57 61/58/58
f 58/57/57 57/55/55 56/56/56
f 57/55/55 59/59/59 60/60/60
f 57/55/55 61/58/58 59/59/59
f 57/55/55 60/60/60 55/54/54
f 62/61/61 61/58/58 58/57/57
f 62/61/61 63/62/62 61/58/58
f 63/62/62 64/63/63 61/58/58
f 61/58/58 64/63/63 59/59/59
f 64/63/63 63/62/62 65/64/64
f 64/63/63 65/64/64 66/65/65
f 64/63/63 66/65/65 59/59/59
f 67/66/66 66/65/65 65/64/64
f 66/65/65 68/67/67 59/59/59
f 69/68/68 59/59/59 68/67/67
f 60/60/60 59/59/59 69/68/68
f 60/60/60 69/68/68 70/69/69
f 70/69/69 69/68/68 71/70/70
f 70/69/69 71/70/70 72/71/71
f 73/72/72 72/71/71 71/70/70
f 75/73/73 73/72/72 67/66/66
f 74/74/74 73/72/72 75/73/73
f 73/72/72 74/74/74 72/71/71
f 75/73/73 67/66/66 65/64/64
f 76/75/75 77/76/76 75/73/73
f 76/75/75 75/73/73 65/64/64
f 75/73/73 77/76/76 74/74/74
f 77/76/76 53/52/52 80/77/77
f 53/52/52 77/76/76 78/78/78
f 79/79/79 77/76/76 76/75/75
f 77/76/76 79/79/79 78/78/78
f 80/77/77 74/74/74 77/76/76
f 74/74/74 80/77/77 72/71/71
f 80/77/77 55/54/54 72/71/71
f 53/52/52 55/54/54 80/77/77
f 79/79/79 63/62/62 62/61/61
f 79/79/79 76/75/75 63/62/62
f 79/79/79 62/61/61 81/80/80
f 46/47/47 78/78/78 79/79/79
f 79/79/79 81/80/80 46/47/47
f 45/81/81 46/47/47 81/80/80
f 81/80/80 58/57/57 82/82/82
f 62/61/61 58/57/57 81/80/80
f 58/57/57 56/56/56 82/82/82
f 82/82/82 56/56/56 50/50/50
f 48/46/46 78/78/78 46/47/47
f 78/78/78 48/46/46 53/52/52
f 76/75/75 65/64/64 63/62/62
f 72/71/71 55/54/54 70/69/69
f 55/54/54 60/60/60 70/69/69
f 56/56/56 51/49/49 50/50/50
