# Blender v2.93.4 OBJ File: ''
# www.blender.org
mtllib shrekpantbajo.mtl
o Ecelon.015_Ecelon.120
v 0.031698 0.376650 -0.027980
v -0.000584 0.411814 -0.001901
v -0.000587 0.455803 -0.086070
v 0.065164 0.376759 0.042090
v 0.109545 0.412166 -0.071336
v 0.096170 0.452122 -0.078483
v 0.191002 0.502601 -0.050230
v 0.164827 0.434209 -0.043345
v 0.112434 0.383927 0.063319
v 0.169676 0.401964 0.047902
v 0.186211 0.464487 0.027180
v 0.148021 0.428814 0.096479
v 0.089499 0.411023 0.129350
v -0.000589 0.402888 0.138682
v -0.090678 0.410863 0.128975
v -0.066346 0.376205 0.041282
v -0.149198 0.428116 0.096376
v -0.187390 0.464371 0.027239
v -0.113617 0.383197 0.062820
v -0.170855 0.401510 0.047584
v -0.192180 0.502695 -0.050128
v -0.166005 0.434550 -0.043433
v -0.032877 0.377025 -0.028980
v -0.110723 0.413402 -0.072196
v -0.097348 0.453415 -0.078437
v -0.104707 0.533717 -0.132157
v -0.173929 0.521558 -0.093792
v -0.000589 0.534835 -0.148375
v 0.103559 0.533616 -0.132256
v 0.172752 0.521365 -0.093947
vt 1.796224 -0.509411
vt 1.756879 -0.479835
vt 1.756881 -0.445626
vt 1.893951 -0.480402
vt 1.877165 -0.447132
vt 1.996202 -0.404766
vt 1.963345 -0.461688
vt 1.969424 -0.487280
vt 1.990189 -0.436111
vt 1.897571 -0.501849
vt 1.942247 -0.465122
vt 1.838232 -0.508097
vt 1.868788 -0.479484
vt 1.756879 -0.486772
vt 1.868788 -0.479484
vt 1.942247 -0.465122
vt 1.838232 -0.508097
vt 1.990189 -0.436111
vt 1.897571 -0.501849
vt 1.969424 -0.487280
vt 1.996202 -0.404766
vt 1.963345 -0.461688
vt 1.796224 -0.509411
vt 1.893951 -0.480402
vt 1.877165 -0.447132
vt 1.973293 -0.389281
vt 1.886534 -0.378979
vt 1.756878 -0.377982
vt 1.886534 -0.378979
vt 1.973293 -0.389281
vn -0.4987 -0.6358 -0.5891
vn -0.0020 -0.9936 -0.1131
vn -0.0006 -0.5966 -0.8025
vn 0.1647 -0.2938 -0.9416
vn 0.2036 -0.3300 -0.9218
vn 0.6991 -0.4803 -0.5297
vn 0.7609 -0.3464 -0.5485
vn 0.5415 0.1183 0.8323
vn 0.9435 -0.3153 0.1020
vn -0.0315 -0.4484 0.8932
vn 0.5812 -0.7802 0.2311
vn -0.4281 -0.7527 0.5001
vn 0.1325 -0.9753 0.1766
vn 0.0011 -0.9980 -0.0634
vn -0.1272 -0.9755 0.1795
vn -0.5798 -0.7813 0.2309
vn 0.4298 -0.7511 0.5011
vn -0.9438 -0.3146 0.1015
vn 0.0363 -0.4505 0.8920
vn -0.5393 0.1134 0.8344
vn -0.6972 -0.4793 -0.5331
vn -0.7627 -0.3466 -0.5459
vn 0.5001 -0.6331 -0.5907
vn -0.1658 -0.2791 -0.9458
vn -0.2043 -0.3225 -0.9243
vn -0.4412 -0.6381 -0.6310
vn -0.1936 -0.5739 -0.7957
vn -0.0007 -0.6191 -0.7853
vn 0.1919 -0.5704 -0.7986
vn 0.4453 -0.6337 -0.6325
usemtl Shrek.001
s 1
f 1/1/1 2/2/2 3/3/3
f 5/4/4 1/1/1 3/3/3
f 5/4/4 6/5/5 7/6/6
f 3/3/3 6/5/5 5/4/4
f 7/6/6 8/7/7 5/4/4
f 10/8/8 11/9/9 9/10/10
f 7/6/6 11/9/9 10/8/8
f 10/8/8 8/7/7 7/6/6
f 11/9/9 12/11/11 9/10/10
f 4/12/12 12/11/11 13/13/13
f 9/10/10 12/11/11 4/12/12
f 2/2/2 4/12/12 13/13/13
f 2/2/2 13/13/13 14/14/14
f 15/15/15 2/2/2 14/14/14
f 17/16/16 16/17/17 15/15/15
f 16/17/17 2/2/2 15/15/15
f 17/16/16 18/18/18 19/19/19
f 17/16/16 19/19/19 16/17/17
f 18/18/18 20/20/20 19/19/19
f 18/18/18 21/21/21 20/20/20
f 22/22/22 20/20/20 21/21/21
f 2/2/2 23/23/23 3/3/3
f 23/23/23 24/24/24 3/3/3
f 25/25/25 24/24/24 21/21/21
f 25/25/25 3/3/3 24/24/24
f 22/22/22 21/21/21 24/24/24
f 27/26/26 26/27/27 25/25/25
f 25/25/25 26/27/27 3/3/3
f 27/26/26 25/25/25 21/21/21
f 26/27/27 28/28/28 3/3/3
f 28/28/28 29/29/29 3/3/3
f 29/29/29 6/5/5 3/3/3
f 29/29/29 30/30/30 6/5/5
f 6/5/5 30/30/30 7/6/6
